<?xml version="1.0" encoding="utf-8"?>
<!-- Generator: Adobe Illustrator 16.0.0, SVG Export Plug-In . SVG Version: 6.00 Build 0)  -->
<!DOCTYPE svg PUBLIC "-//W3C//DTD SVG 1.1//EN" "http://www.w3.org/Graphics/SVG/1.1/DTD/svg11.dtd">
<svg version="1.1" id="Layer_1" xmlns="http://www.w3.org/2000/svg" xmlns:xlink="http://www.w3.org/1999/xlink" x="0px" y="0px"
	 width="32px" height="32px" viewBox="0 0 32 32" enable-background="new 0 0 32 32" xml:space="preserve">
<g>
	<g>
		<path fill-rule="evenodd" clip-rule="evenodd" fill="#FAF2EE" d="M11.648,28.5c0.814,0.148,1.112-0.354,1.112-0.785
			c0-0.387-0.014-1.412-0.022-2.771C8.207,25.928,7.25,22.76,7.25,22.76c-0.741-1.881-1.809-2.383-1.809-2.383
			c-1.479-1.01,0.112-0.99,0.112-0.99c1.635,0.115,2.495,1.68,2.495,1.68c1.453,2.488,3.812,1.77,4.741,1.354
			c0.148-1.053,0.569-1.771,1.034-2.178c-3.617-0.412-7.42-1.809-7.42-8.051c0-1.778,0.635-3.232,1.677-4.371
			C7.913,7.408,7.354,5.752,8.24,3.51c0,0,1.368-0.438,4.479,1.67c1.299-0.361,2.693-0.543,4.078-0.549
			c1.384,0.006,2.776,0.188,4.078,0.549c3.11-2.108,4.476-1.67,4.476-1.67c0.889,2.242,0.329,3.898,0.162,4.311
			c1.043,1.139,1.674,2.593,1.674,4.371c0,6.258-3.809,7.635-7.438,8.037c0.585,0.504,1.105,1.498,1.105,3.018
			c0,2.178-0.02,3.934-0.02,4.469c0,0.436,0.293,0.941,1.12,0.783"/>
	</g>
	<path fill="none" d="M10.851,31.973l10.308-0.002L10.851,31.973z"/>
</g>
</svg>
